<?xml version="1.0" encoding="UTF-8" standalone="no"?>
<!--
  SEO Pro Stack banner (WordPress.org banners and the Read Me tab).
  Source: .wordpress-org/banner.svg. Edit that, then run scripts/build-banner.sh.
  Branding follows wpallstars.com: navy, red and cream, Zilla Slab italic
  headings, the logo's arc of five stars and its red double stripes (here with cream between).
-->

<svg
   width="1544"
   height="500"
   viewBox="0 0 1544 500"
   version="1.1"
   id="svg51"
   xmlns:xlink="http://www.w3.org/1999/xlink"
   xmlns="http://www.w3.org/2000/svg"
   xmlns:svg="http://www.w3.org/2000/svg">
  <title
     id="title1">WPALLSTARS SEO Pro Stack: WP Admin – Solved!</title>
  <defs
     id="defs21">
    <linearGradient
       id="bg"
       x1="0"
       y1="0"
       x2="1"
       y2="1">
      <stop
         offset="0"
         stop-color="#000c1f"
         id="stop1" />
      <stop
         offset="0.55"
         stop-color="#001537"
         id="stop2" />
      <stop
         offset="1"
         stop-color="#0d264d"
         id="stop3" />
    </linearGradient>
    <radialGradient
       id="glow-blue"
       cx="1214"
       cy="270"
       r="440"
       gradientUnits="userSpaceOnUse">
      <stop
         offset="0"
         stop-color="#0022cc"
         stop-opacity="0.55"
         id="stop4" />
      <stop
         offset="1"
         stop-color="#0022cc"
         stop-opacity="0"
         id="stop5" />
    </radialGradient>
    <radialGradient
       id="glow-red"
       cx="200"
       cy="580"
       r="520"
       gradientUnits="userSpaceOnUse">
      <stop
         offset="0"
         stop-color="#bb0000"
         stop-opacity="0.2"
         id="stop6" />
      <stop
         offset="1"
         stop-color="#bb0000"
         stop-opacity="0"
         id="stop7" />
    </radialGradient>
    <radialGradient
       id="glow-gold"
       cx="1214"
       cy="76"
       r="120"
       gradientUnits="userSpaceOnUse">
      <stop
         offset="0"
         stop-color="#ffc94d"
         stop-opacity="0.45"
         id="stop8" />
      <stop
         offset="1"
         stop-color="#ffc94d"
         stop-opacity="0"
         id="stop9" />
    </radialGradient>
    <radialGradient
       id="dots-fade"
       cx="1214"
       cy="260"
       r="560"
       gradientUnits="userSpaceOnUse">
      <stop
         offset="0"
         stop-color="#fff"
         stop-opacity="1"
         id="stop10" />
      <stop
         offset="1"
         stop-color="#fff"
         stop-opacity="0"
         id="stop11" />
    </radialGradient>
    <pattern
       id="dots"
       width="28"
       height="28"
       patternUnits="userSpaceOnUse">
      <circle
         cx="14"
         cy="14"
         r="1.5"
         fill="#ffffea"
         fill-opacity="0.12"
         id="circle11" />
    </pattern>
    <mask
       id="dots-mask">
      <rect
         width="1544"
         height="500"
         fill="url(#dots-fade)"
         id="rect11" />
    </mask>
    <linearGradient
       id="gold"
       x1="0"
       y1="0"
       x2="0"
       y2="1">
      <stop
         offset="0"
         stop-color="#ffe08a"
         id="stop12" />
      <stop
         offset="1"
         stop-color="#f5a524"
         id="stop13" />
    </linearGradient>
    <linearGradient
       id="gold-text"
       x1="96"
       y1="280"
       x2="700"
       y2="340"
       gradientUnits="userSpaceOnUse">
      <stop
         offset="0"
         stop-color="#ffd970"
         id="stop14" />
      <stop
         offset="1"
         stop-color="#f5a524"
         id="stop15" />
    </linearGradient>
    <linearGradient
       id="top-red"
       x1="0"
       y1="0"
       x2="1"
       y2="1">
      <stop
         offset="0"
         stop-color="#ef4444"
         id="stop16" />
      <stop
         offset="1"
         stop-color="#bb0000"
         id="stop17" />
    </linearGradient>
    <linearGradient
       id="top-cream"
       x1="0"
       y1="0"
       x2="1"
       y2="1">
      <stop
         offset="0"
         stop-color="#ffffea"
         id="stop18" />
      <stop
         offset="1"
         stop-color="#d8dee9"
         id="stop19" />
    </linearGradient>
    <linearGradient
       id="top-blue"
       x1="0"
       y1="0"
       x2="1"
       y2="1">
      <stop
         offset="0"
         stop-color="#4466ff"
         id="stop20" />
      <stop
         offset="1"
         stop-color="#0022cc"
         id="stop21" />
    </linearGradient>
    <!-- A five-pointed star, radius 1, centred on 0,0 -->
    <polygon
       id="star"
       points="0,-1 0.2245,-0.309 0.9511,-0.309 0.3633,0.118 0.5878,0.809 0,0.382 -0.5878,0.809 -0.3633,0.118 -0.9511,-0.309 -0.2245,-0.309" />
  </defs>
  <!-- Background -->
  <rect
     width="1544"
     height="500"
     fill="url(#bg)"
     id="rect21" />
  <rect
     width="1544"
     height="500"
     fill="url(#glow-red)"
     id="rect22" />
  <rect
     width="1544"
     height="500"
     fill="url(#glow-blue)"
     id="rect23" />
  <rect
     width="1544"
     height="500"
     fill="url(#dots)"
     mask="url(#dots-mask)"
     id="rect24" />
  <!-- wpallstars.com's red double lines, with a cream line between them. -->
  <g
     id="g30">
    <rect
       y="0"
       width="1544"
       height="6"
       fill="#bb0000"
       id="rect25" />
    <rect
       y="6"
       width="1544"
       height="5"
       fill="#ffffea"
       id="rect26" />
    <rect
       y="11"
       width="1544"
       height="6"
       fill="#bb0000"
       id="rect27" />
    <rect
       y="483"
       width="1544"
       height="6"
       fill="#bb0000"
       id="rect28" />
    <rect
       y="489"
       width="1544"
       height="5"
       fill="#ffffea"
       id="rect29" />
    <rect
       y="494"
       width="1544"
       height="6"
       fill="#bb0000"
       id="rect30" />
  </g>
  <!-- The picture: scaled down a little so it keeps clear of the stripes -->
  <g
     transform="translate(1214 248) scale(0.86) translate(-1214 -248)"
     id="g48">
    <!-- The stack: red, cream and blue layers, each with a top face and two sides -->
    <g
       stroke-linejoin="round"
       id="g43">
      <g
         transform="translate(0 350)"
         id="g33">
        <polygon
           points="1064,0 1214,87 1214,117 1064,30"
           fill="#001aa3"
           id="polygon30" />
        <polygon
           points="1214,87 1364,0 1364,30 1214,117"
           fill="#00137a"
           id="polygon31" />
        <polygon
           points="1214,-87 1364,0 1214,87 1064,0"
           fill="url(#top-blue)"
           id="polygon32" />
        <polygon
           points="1214,-61 1319,0 1214,61 1109,0"
           fill="none"
           stroke="#ffffff"
           stroke-opacity="0.3"
           stroke-width="2"
           id="polygon33" />
      </g>
      <g
         transform="translate(0 294)"
         id="g37">
        <polygon
           points="1064,0 1214,87 1214,117 1064,30"
           fill="#b9c2d4"
           id="polygon34" />
        <polygon
           points="1214,87 1364,0 1364,30 1214,117"
           fill="#949fb5"
           id="polygon35" />
        <polygon
           points="1214,-87 1364,0 1214,87 1064,0"
           fill="url(#top-cream)"
           id="polygon36" />
        <polygon
           points="1214,-61 1319,0 1214,61 1109,0"
           fill="none"
           stroke="#001537"
           stroke-opacity="0.18"
           stroke-width="2"
           id="polygon37" />
      </g>
      <g
         transform="translate(0 238)"
         id="g42">
        <polygon
           points="1064,0 1214,87 1214,117 1064,30"
           fill="#940000"
           id="polygon38" />
        <polygon
           points="1214,87 1364,0 1364,30 1214,117"
           fill="#700000"
           id="polygon39" />
        <polygon
           points="1214,-87 1364,0 1214,87 1064,0"
           fill="url(#top-red)"
           id="polygon40" />
        <!-- The WordPress Plugins icon (Dashicons admin-plugins, GPLv2 or later),
           laid flat on the top face: icon x runs along the top-right edge and
           icon y along the top-left edge, each 20-unit side 66% of the face.
           Turned 45 degrees so the plug points along the back-left edge. -->
        <g
           transform="matrix(4.95 2.871 -4.95 2.871 1214 -57.42)"
           id="g41">
          <path
             fill="#5c0000"
             fill-opacity="0.55"
             transform="translate(0.3 0.3) rotate(-45 10 10)"
             d="M13.11 4.36L9.87 7.6 8 5.73l3.24-3.24c.35-.34 1.05-.2 1.56.32.52.51.66 1.21.31 1.55zm-8 1.77l.91-1.12 9.01 9.01-1.19.84c-.71.71-2.63 1.16-3.82 1.16H6.14L4.9 17.26c-.59.59-1.54.59-2.12 0-.59-.58-.59-1.53 0-2.12l1.24-1.24v-3.88c0-1.13.4-3.19 1.09-3.89zm7.26 3.97l3.24-3.24c.34-.35 1.04-.21 1.55.31.52.51.66 1.21.31 1.55l-3.24 3.25z"
             id="path40" />
          <path
             fill="#ffffea"
             transform="rotate(-45 10 10)"
             d="M13.11 4.36L9.87 7.6 8 5.73l3.24-3.24c.35-.34 1.05-.2 1.56.32.52.51.66 1.21.31 1.55zm-8 1.77l.91-1.12 9.01 9.01-1.19.84c-.71.71-2.63 1.16-3.82 1.16H6.14L4.9 17.26c-.59.59-1.54.59-2.12 0-.59-.58-.59-1.53 0-2.12l1.24-1.24v-3.88c0-1.13.4-3.19 1.09-3.89zm7.26 3.97l3.24-3.24c.34-.35 1.04-.21 1.55.31.52.51.66 1.21.31 1.55l-3.24 3.25z"
             id="path41" />
        </g>
      </g>
    </g>
    <!-- The logo's arc of five stars: gold in the middle, floating above the stack -->
    <circle
       cx="1214"
       cy="76"
       r="120"
       fill="url(#glow-gold)"
       id="circle43" />
    <g
       stroke-linejoin="round"
       id="g47">
      <g
         fill="#0022cc"
         stroke="#ffffea"
         stroke-width="5"
         id="g46">
        <use
           xlink:href="#star"
           transform="translate(1043 150) scale(17)"
           stroke-width="0.3"
           id="use43" />
        <use
           xlink:href="#star"
           transform="translate(1110 100) scale(26)"
           stroke-width="0.2"
           id="use44" />
        <use
           xlink:href="#star"
           transform="translate(1318 100) scale(26)"
           stroke-width="0.2"
           id="use45" />
        <use
           xlink:href="#star"
           transform="translate(1385 150) scale(17)"
           stroke-width="0.3"
           id="use46" />
      </g>
      <use
         xlink:href="#star"
         transform="translate(1214 78) scale(54)"
         fill="url(#gold)"
         stroke="#ffffea"
         stroke-width="0.11"
         id="use47" />
    </g>
  </g>
  <!-- Words -->
  <g
     font-family="Zilla Slab"
     text-rendering="geometricPrecision"
     id="g51">
    <path
       d="m 123.893,113.015 h -1.431 L 117.683,128 h -2.214 l -4.293,-12.366 h -0.135 L 106.883,128 h -2.241 l -5.076,-14.985 h -1.512 v -2.565 h 6.669 v 2.565 h -1.944 l 3.024,10.044 h 0.135 l 3.483,-10.044 h -1.539 v -2.565 h 6.642 v 2.565 h -1.431 l 3.483,10.179 h 0.135 l 2.754,-10.179 h -2.16 v -2.565 h 6.588 z m 20.60601,3.024 q 0,2.889 -1.863,4.374 -1.836,1.458 -4.428,1.458 h -2.97 v 3.564 h 2.808 V 128 h -7.83 v -2.565 h 2.025 v -12.42 h -2.025 v -2.565 h 7.83 q 3.267,0 4.86,1.566 1.593,1.566 1.593,4.023 z m -3.213,0.054 q 0,-1.458 -0.837,-2.268 -0.81,-0.81 -2.754,-0.81 h -2.457 v 6.318 h 2.457 q 1.917,0 2.754,-0.864 0.837,-0.891 0.837,-2.376 z M 166.72505,128 h -6.723 v -2.565 h 1.782 l -0.891,-2.403 h -6.561 l -0.945,2.403 h 1.971 V 128 h -6.642 v -2.565 h 1.62 l 5.292,-12.42 h -2.565 v -2.565 h 5.643 l 6.318,14.985 h 1.701 z m -6.642,-7.155 -2.295,-6.102 h -0.162 l -2.43,6.102 z M 185.71107,128 h -12.987 v -2.565 h 2.025 v -12.42 h -2.025 v -2.565 h 7.641 v 2.565 h -2.619 v 12.42 h 5.4 l 0.54,-3.645 2.565,0.216 z m 19.93099,0 h -12.987 v -2.565 h 2.025 v -12.42 h -2.025 v -2.565 h 7.641 v 2.565 h -2.619 v 12.42 h 5.4 l 0.54,-3.645 2.565,0.216 z m 19.68799,-5.157 q 0,2.619 -1.836,4.023 -1.809,1.404 -4.806,1.404 -1.782,0 -3.456,-0.432 -1.647,-0.432 -2.619,-1.242 l 0.486,-4.023 2.403,0.243 -0.054,2.16 q 0.891,0.459 1.62,0.594 0.756,0.108 1.404,0.108 1.566,0 2.592,-0.486 1.053,-0.513 1.053,-2.025 0,-1.647 -1.188,-2.187 -1.188,-0.567 -2.727,-0.864 -1.242,-0.243 -2.511,-0.648 -1.269,-0.405 -2.106,-1.35 -0.837,-0.945 -0.837,-2.781 0,-2.754 1.863,-3.942 1.89,-1.215 4.212,-1.215 1.62,0 3.132,0.486 1.539,0.486 2.403,1.269 l 0.162,3.699 -2.403,0.216 -0.243,-2.268 q -0.756,-0.432 -1.512,-0.594 -0.756,-0.162 -1.458,-0.162 -1.269,0 -2.106,0.513 -0.837,0.513 -0.837,1.647 0,1.323 1.026,1.809 1.053,0.459 2.349,0.756 1.107,0.243 2.511,0.648 1.404,0.405 2.43,1.458 1.053,1.026 1.053,3.186 z m 22.65801,-6.669 -2.592,0.216 -0.54,-3.375 h -3.429 v 12.42 h 2.943 V 128 h -8.775 v -2.565 h 2.835 v -12.42 h -3.456 l -0.54,3.375 -2.565,-0.216 0.54,-5.724 h 15.039 z M 270.18705,128 h -6.723 v -2.565 h 1.782 l -0.891,-2.403 h -6.561 l -0.945,2.403 h 1.971 V 128 h -6.642 v -2.565 h 1.62 l 5.292,-12.42 h -2.565 v -2.565 h 5.643 l 6.318,14.985 h 1.701 z m -6.642,-7.155 -2.295,-6.102 h -0.162 l -2.43,6.102 z M 291.81908,128 h -4.104 l -3.618,-6.939 h -2.889 v 4.374 h 2.052 V 128 h -7.074 v -2.565 h 2.025 v -12.42 h -2.025 v -2.565 h 7.803 q 3.267,0 4.887,1.377 1.62,1.35 1.62,3.807 0,1.755 -0.945,3.024 -0.918,1.242 -2.565,1.782 l 2.673,4.995 h 2.16 z m -4.509,-12.285 q 0,-1.485 -0.864,-2.079 -0.864,-0.621 -2.943,-0.621 h -2.295 v 5.643 h 2.268 q 2.16,0 2.997,-0.756 0.837,-0.783 0.837,-2.187 z m 23.62998,7.128 q 0,2.619 -1.836,4.023 -1.809,1.404 -4.806,1.404 -1.782,0 -3.456,-0.432 -1.647,-0.432 -2.619,-1.242 l 0.486,-4.023 2.403,0.243 -0.054,2.16 q 0.891,0.459 1.62,0.594 0.756,0.108 1.404,0.108 1.566,0 2.592,-0.486 1.053,-0.513 1.053,-2.025 0,-1.647 -1.188,-2.187 -1.188,-0.567 -2.727,-0.864 -1.242,-0.243 -2.511,-0.648 -1.269,-0.405 -2.106,-1.35 -0.837,-0.945 -0.837,-2.781 0,-2.754 1.863,-3.942 1.89,-1.215 4.212,-1.215 1.62,0 3.132,0.486 1.539,0.486 2.403,1.269 l 0.162,3.699 -2.403,0.216 -0.243,-2.268 q -0.756,-0.432 -1.512,-0.594 -0.756,-0.162 -1.458,-0.162 -1.269,0 -2.106,0.513 -0.837,0.513 -0.837,1.647 0,1.323 1.026,1.809 1.053,0.459 2.349,0.756 1.107,0.243 2.511,0.648 1.404,0.405 2.43,1.458 1.053,1.026 1.053,3.186 z"
       id="text48"
       style="font-weight:600;font-size:27px;letter-spacing:5;fill:#ff999b"
       aria-label="WPALLSTARS" />
    <path
       d="m 150,216.336 q 0,12.064 -8.004,18.444 -7.888,6.38 -22.04,6.38 -7.772,0 -15.08,-1.972 -7.192,-1.972 -11.136,-5.916 l 4.292,-18.676 12.064,1.16 -1.044,9.164 q 3.596,2.088 6.264,2.552 2.668,0.348 4.176,0.348 6.496,0 10.208,-1.972 3.828,-2.088 3.828,-8.352 0,-5.684 -3.248,-7.308 -3.248,-1.74 -9.628,-2.9 -5.104,-0.928 -10.092,-2.784 -4.872,-1.972 -8.12,-5.916 -3.248,-4.06 -3.248,-11.6 0,-8.7 4.292,-13.804 4.408,-5.22 11.02,-7.424 6.728,-2.32 13.688,-2.32 7.656,0 13.92,2.32 6.38,2.204 9.628,6.032 l -1.044,16.356 -12.296,1.16 -0.116,-8.816 q -2.668,-1.972 -5.452,-2.668 -2.784,-0.696 -5.568,-0.696 -4.872,0 -8.352,1.856 -3.48,1.74 -3.48,6.032 0,4.524 3.712,6.264 3.712,1.74 8.584,2.784 4.872,1.044 9.976,3.016 5.22,1.856 8.7,6.264 3.596,4.408 3.596,12.992 z M 211.06001,240 h -56.724 l 1.392,-13.224 h 8.004 l 5.104,-48.952 h -8.004 l 1.392,-13.224 h 56.028 v 22.04 l -12.76,1.16 -1.16,-9.976 h -20.648 l -1.856,17.748 h 31.552 l -1.392,13.108 h -31.552 l -1.856,18.096 h 21.228 l 3.364,-9.976 12.528,1.16 z m 51.54803,-76.56 q 15.892,0 24.592,10.208 8.816,10.208 8.816,24.592 0,11.6 -5.336,21.344 -5.336,9.744 -14.848,15.66 -9.396,5.916 -21.46,5.916 -16.24,0 -24.592,-10.208 -8.352,-10.324 -8.352,-24.592 0,-11.948 5.452,-21.692 5.452,-9.744 14.732,-15.428 9.28,-5.8 20.996,-5.8 z m -5.916,64.032 q 11.716,0 17.4,-8.7 5.684,-8.7 5.684,-19.372 0,-10.672 -5.104,-16.472 -5.104,-5.8 -13.688,-5.8 -10.904,0 -17.168,8.236 -6.148,8.236 -6.148,19.604 0,8.584 4.176,15.544 4.292,6.96 14.848,6.96 z m 62.38004,-0.696 h 7.772 l 5.104,-48.952 h -7.772 l 1.392,-13.224 h 33.176 q 12.412,0 18.792,6.264 6.38,6.148 6.38,16.704 0,13.688 -9.164,20.416 -9.048,6.728 -20.532,6.728 h -11.136 l -1.276,12.064 h 11.136 l -1.392,13.224 h -33.872 z m 33.756,-25.172 q 8.584,0 11.716,-3.828 3.248,-3.944 3.248,-9.512 0,-5.104 -2.668,-7.772 -2.668,-2.668 -9.628,-2.668 h -8.584 l -2.436,23.78 z m 38.20788,-13.92 h 14.964 l 0.812,14.384 q 1.74,-5.452 4.756,-10.44 3.132,-4.988 7.888,-4.988 3.248,0 5.684,2.088 l -2.32,15.428 q -3.248,-1.74 -6.032,-1.74 -7.888,0 -9.744,8.12 l -2.552,18.096 h 9.976 l -1.044,8.236 -3.596,3.132 h -27.956 l 1.044,-8.236 3.596,-3.132 h 3.48 l 3.596,-29.58 h -7.192 l 1.044,-8.236 z m 33.68405,29.812 q 0,-11.948 6.96,-21.344 6.96,-9.512 21.46,-9.512 11.948,0 17.516,6.844 5.568,6.844 5.568,17.4 0,13.572 -8.004,21.924 -7.888,8.352 -20.764,8.352 -10.672,0 -16.704,-6.032 -6.032,-6.148 -6.032,-17.632 z m 15.66,-1.276 q 0,6.264 1.624,9.976 1.74,3.596 6.844,3.596 6.612,0 9.28,-5.452 2.668,-5.452 2.668,-12.992 0,-13.34 -9.164,-13.34 -11.252,0 -11.252,18.212 z m 115.50808,0.116 q 0,12.064 -8.004,18.444 -7.888,6.38 -22.04,6.38 -7.772,0 -15.08,-1.972 -7.192,-1.972 -11.136,-5.916 l 4.292,-18.676 12.064,1.16 -1.044,9.164 q 3.596,2.088 6.264,2.552 2.668,0.348 4.176,0.348 6.496,0 10.208,-1.972 3.828,-2.088 3.828,-8.352 0,-5.684 -3.248,-7.308 -3.248,-1.74 -9.628,-2.9 -5.104,-0.928 -10.092,-2.784 -4.872,-1.972 -8.12,-5.916 -3.248,-4.06 -3.248,-11.6 0,-8.7 4.292,-13.804 4.408,-5.22 11.02,-7.424 6.728,-2.32 13.688,-2.32 7.656,0 13.92,2.32 6.38,2.204 9.628,6.032 l -1.044,16.356 -12.296,1.16 -0.116,-8.816 q -2.668,-1.972 -5.452,-2.668 -2.784,-0.696 -5.568,-0.696 -4.872,0 -8.352,1.856 -3.48,1.74 -3.48,6.032 0,4.524 3.712,6.264 3.712,1.74 8.584,2.784 4.872,1.044 9.976,3.016 5.22,1.856 8.7,6.264 3.596,4.408 3.596,12.992 z m 6.19202,-25.056 3.944,-3.596 h 3.364 l 1.392,-11.252 4.524,-4.64 h 10.44 l -1.972,15.892 h 15.66 l -1.044,7.656 -3.944,3.712 h -12.064 l -2.9,23.896 q -0.812,6.844 3.48,6.844 1.856,0 3.596,-1.624 1.856,-1.74 3.364,-7.772 l 10.092,3.364 q -2.204,9.048 -6.496,13.224 -4.292,4.176 -12.064,4.176 -8.352,0 -12.992,-4.292 -4.524,-4.408 -3.596,-12.528 l 3.132,-25.288 h -6.96 z m 95.04807,-3.596 q -1.508,4.756 -2.668,9.28 -1.044,4.524 -1.624,9.28 l -2.784,22.388 h 6.728 l -1.044,8.468 -3.48,2.9 h -15.66 l -0.464,-10.672 q -2.436,4.872 -6.612,8.352 -4.176,3.48 -10.556,3.48 -8.584,0 -12.876,-6.496 -4.292,-6.496 -4.292,-15.892 0,-7.076 2.552,-14.5 2.552,-7.424 7.772,-12.528 5.336,-5.104 13.804,-5.104 11.368,0 14.848,9.744 0.58,-2.204 1.044,-4.292 0.58,-2.204 1.392,-4.408 z m -28.884,10.324 q -5.568,0 -8.236,5.916 -2.668,5.8 -2.668,13.108 0,12.76 7.424,12.76 4.756,0 8.12,-4.524 3.364,-4.524 4.408,-9.628 l 0.464,-3.944 q 0.696,-6.496 -2.436,-10.092 -3.016,-3.596 -7.076,-3.596 z m 59.55191,0 q -4.756,0 -7.888,4.872 -3.016,4.756 -3.016,13.92 0,5.916 1.74,9.512 1.856,3.48 6.844,3.48 4.292,0 6.38,-2.9 2.204,-3.016 3.712,-8.7 l 11.716,2.32 q -1.508,7.424 -7.192,14.036 -5.684,6.612 -17.052,6.612 -10.208,0 -16.008,-6.264 -5.684,-6.264 -5.684,-17.516 0,-7.424 2.668,-14.5 2.784,-7.076 8.7,-11.6 6.032,-4.64 15.66,-4.64 3.944,0 9.048,1.044 5.104,0.928 9.28,3.364 l 0.58,15.892 -11.948,1.276 -0.696,-9.28 q -1.972,-0.696 -3.596,-0.812 -1.508,-0.116 -3.248,-0.116 z m 26.72389,-34.684 3.596,-3.132 h 17.864 l -5.916,48.256 h 6.38 q 8.12,-9.048 9.628,-20.764 h 14.384 q 0.116,6.96 -4.176,13.688 -4.292,6.728 -11.368,11.6 l 8.468,15.66 h 8.004 l -1.044,8.468 -3.48,2.9 h -12.18 l -11.6,-21.808 h -4.176 l -2.668,21.808 h -14.384 l 8.352,-68.44 h -6.728 z"
       id="text49"
       style="font-style:italic;font-weight:700;font-size:116px;letter-spacing:-1;fill:#ffffea"
       aria-label="SEO Pro Stack" />
    <path
       d="M 165.552,287.408 H 161.88 L 145.536,326 h -6.552 l -7.416,-30.24 h -0.36 L 117.96,326 h -6.696 l -9.072,-38.592 h -3.888 l 0.864,-8.208 h 17.856 l -0.864,8.208 h -4.104 l 4.32,22.608 h 0.432 l 10.368,-22.608 h -3.528 l 0.864,-8.208 h 17.928 l -0.864,8.208 h -3.24 l 5.544,23.04 h 0.432 l 8.28,-23.04 h -4.752 l 0.864,-8.208 h 17.712 z m 0.43202,30.384 h 4.824 l 3.168,-30.384 h -4.824 l 0.864,-8.208 h 20.592 q 7.704,0 11.664,3.888 3.96,3.816 3.96,10.368 0,8.496 -5.688,12.672 -5.616,4.176 -12.744,4.176 h -6.912 l -0.792,7.488 h 6.912 l -0.864,8.208 h -21.024 z m 20.952,-15.624 q 5.328,0 7.272,-2.376 2.016,-2.448 2.016,-5.904 0,-3.168 -1.656,-4.824 -1.656,-1.656 -5.976,-1.656 h -5.328 l -1.512,14.76 z m 29.80806,15.624 h 4.104 l 15.984,-30.384 h -6.192 l 0.864,-8.208 h 15.408 l 12.168,38.592 h 4.248 l -0.864,8.208 h -17.856 l 0.864,-8.208 h 3.6 l -1.224,-4.752 h -15.264 l -2.304,4.752 h 4.176 l -0.864,8.208 h -17.712 z m 25.632,-24.84 -6.408,13.176 h 10.152 l -3.312,-13.176 z m 42.76805,-14.544 2.232,-1.944 h 12.816 l -5.184,42.48 h 4.176 l -0.648,5.256 -2.16,1.8 h -9.72 l -0.144,-7.128 q -1.584,3.168 -4.464,5.544 -2.808,2.304 -6.912,2.304 -5.328,0 -7.848,-4.032 -2.52,-4.032 -2.52,-9.648 0,-4.536 1.656,-9.144 1.656,-4.68 5.04,-7.848 3.384,-3.168 8.568,-3.168 6.192,0 8.64,4.752 l 1.728,-14.112 h -5.904 z m -3.672,21.528 q -3.456,0 -5.256,3.6 -1.8,3.6 -1.8,8.496 0,3.384 1.008,5.544 1.008,2.088 3.384,2.088 2.88,0 5.112,-2.664 2.304,-2.736 3.096,-5.832 l 0.432,-3.816 q 0.072,-3.528 -1.8,-5.472 -1.872,-1.944 -4.176,-1.944 z m 24.26396,-6.408 h 10.008 l 0.288,6.264 q 1.656,-3.096 4.248,-4.968 2.592,-1.944 6.264,-1.944 3.528,0 5.904,1.8 2.376,1.728 2.88,5.4 1.656,-3.168 4.248,-5.184 2.664,-2.016 6.408,-2.016 4.392,0 6.912,2.736 2.592,2.736 1.872,8.496 l -1.8,14.832 h 4.176 l -0.648,5.256 -2.16,1.8 h -11.088 l 2.232,-18.288 q 0.504,-4.176 -0.504,-5.976 -1.008,-1.8 -3.672,-1.8 -3.24,0 -4.608,2.16 -1.368,2.16 -1.8,5.544 l -2.232,18.36 h -8.856 l 2.232,-18.288 q 0.504,-4.176 -0.504,-5.976 -1.008,-1.8 -3.672,-1.8 -3.24,0 -4.608,2.16 -1.368,2.16 -1.8,5.544 l -2.232,18.36 h -8.928 l 3.096,-25.416 h -4.536 l 0.648,-5.112 z m 61.41594,-5.76 1.008,-9.648 h 8.64 l -1.008,9.648 z m -5.688,7.704 2.232,-1.944 h 11.448 l -3.096,25.416 h 4.104 l -0.648,5.256 -2.16,1.8 h -11.088 l 3.096,-25.416 h -4.536 z m 21.81603,-1.944 h 10.008 l 0.36,6.192 q 1.656,-3.096 4.248,-4.968 2.592,-1.872 6.192,-1.872 4.392,0 7.272,2.736 2.952,2.736 2.232,8.496 l -1.8,14.832 h 4.176 l -0.648,5.256 -2.16,1.8 h -11.088 l 2.232,-18.288 q 0.504,-4.176 -0.648,-5.976 -1.08,-1.8 -3.744,-1.8 -3.024,0 -4.68,1.872 -1.656,1.872 -2.16,4.968 l -2.304,19.224 h -8.928 l 3.096,-25.416 h -4.536 l 0.648,-5.112 z m 50.54409,12.456 h 35.424 l -0.648,6.12 h -35.424 z m 87.48011,5.328 q 0,7.488 -4.968,11.448 -4.896,3.96 -13.68,3.96 -4.824,0 -9.36,-1.224 -4.464,-1.224 -6.912,-3.672 l 2.664,-11.592 7.488,0.72 -0.648,5.688 q 2.232,1.296 3.888,1.584 1.656,0.216 2.592,0.216 4.032,0 6.336,-1.224 2.376,-1.296 2.376,-5.184 0,-3.528 -2.016,-4.536 -2.016,-1.08 -5.976,-1.8 -3.168,-0.576 -6.264,-1.728 -3.024,-1.224 -5.04,-3.672 -2.016,-2.52 -2.016,-7.2 0,-5.4 2.664,-8.568 2.736,-3.24 6.84,-4.608 4.176,-1.44 8.496,-1.44 4.752,0 8.64,1.44 3.96,1.368 5.976,3.744 l -0.648,10.152 -7.632,0.72 -0.072,-5.472 q -1.656,-1.224 -3.384,-1.656 -1.728,-0.432 -3.456,-0.432 -3.024,0 -5.184,1.152 -2.16,1.08 -2.16,3.744 0,2.808 2.304,3.888 2.304,1.08 5.328,1.728 3.024,0.648 6.192,1.872 3.24,1.152 5.4,3.888 2.232,2.736 2.232,8.064 z m 3.74399,0.72 q 0,-7.416 4.32,-13.248 4.32,-5.904 13.32,-5.904 7.416,0 10.872,4.248 3.456,4.248 3.456,10.8 0,8.424 -4.968,13.608 -4.896,5.184 -12.888,5.184 -6.624,0 -10.368,-3.744 -3.744,-3.816 -3.744,-10.944 z m 9.72,-0.792 q 0,3.888 1.008,6.192 1.08,2.232 4.248,2.232 4.104,0 5.76,-3.384 1.656,-3.384 1.656,-8.064 0,-8.28 -5.688,-8.28 -6.984,0 -6.984,11.304 z m 27.43197,-32.832 2.232,-1.944 h 11.376 l -5.184,42.48 h 4.176 l -0.648,5.256 -2.16,1.8 h -11.16 l 5.184,-42.48 h -4.464 z m 31.96804,20.232 -2.232,1.944 h -1.944 l 4.824,14.76 h 0.432 q 3.312,-4.608 4.824,-7.992 1.512,-3.384 1.512,-7.128 0,-3.168 -1.44,-6.696 h 10.008 q 0.792,4.032 -0.144,8.784 -0.864,4.752 -4.896,10.08 -1.8,2.448 -5.4,6.48 -3.6,4.032 -6.768,7.128 h -3.96 l -8.568,-25.416 h -3.384 l 0.648,-5.112 2.232,-1.944 h 14.904 z m 33.40804,21.024 q 3.672,0 4.752,-2.016 1.08,-2.088 1.44,-3.312 l 7.272,1.44 q -0.72,4.248 -4.608,7.632 -3.816,3.312 -10.224,3.312 -5.76,0 -9.864,-3.456 -4.104,-3.456 -4.104,-11.088 0,-7.776 4.608,-13.536 4.608,-5.76 12.96,-5.76 5.184,0 8.496,2.448 3.312,2.448 3.312,6.48 0,3.6 -2.52,6.192 -2.52,2.52 -9.072,3.888 -3.744,0.792 -8.064,1.224 0.216,3.096 1.44,4.824 1.224,1.728 4.176,1.728 z m -2.232,-12.456 q 4.32,-0.792 5.616,-2.088 1.296,-1.296 1.296,-2.736 0,-1.8 -1.152,-2.52 -1.152,-0.72 -2.52,-0.72 -3.024,0 -4.536,2.664 -1.44,2.592 -1.872,5.904 0.864,-0.144 1.656,-0.216 0.792,-0.144 1.512,-0.288 z m 39.24002,-28.8 2.232,-1.944 h 12.816 l -5.184,42.48 h 4.176 l -0.648,5.256 -2.16,1.8 h -9.72 l -0.144,-7.128 q -1.584,3.168 -4.464,5.544 -2.808,2.304 -6.912,2.304 -5.328,0 -7.848,-4.032 -2.52,-4.032 -2.52,-9.648 0,-4.536 1.656,-9.144 1.656,-4.68 5.04,-7.848 3.384,-3.168 8.568,-3.168 6.192,0 8.64,4.752 l 1.728,-14.112 h -5.904 z m -3.672,21.528 q -3.456,0 -5.256,3.6 -1.8,3.6 -1.8,8.496 0,3.384 1.008,5.544 1.008,2.088 3.384,2.088 2.88,0 5.112,-2.664 2.304,-2.736 3.096,-5.832 l 0.432,-3.816 q 0.072,-3.528 -1.8,-5.472 -1.872,-1.944 -4.176,-1.944 z m 37.29592,-20.736 -5.256,30.096 h -6.624 l 1.008,-30.096 z m -15.264,46.8 1.08,-10.44 h 10.656 l -1.08,10.44 z"
       id="text50"
       style="font-style:italic;font-weight:700;font-size:72px;fill:url(#gold-text)"
       aria-label="WP Admin – Solved!" />
    <path
       d="m 118.064,381.282 -2.64,0.231 -0.66,-4.356 h -4.884 v 16.236 h 3.696 V 396 H 103.28 v -2.607 h 3.597 v -16.236 h -4.917 l -0.66,4.356 -2.607,-0.231 0.627,-6.732 h 18.084 z m 3.99299,-3.498 v -3.399 h 3.003 v 3.399 z m 5.478,18.216 h -7.689 v -2.244 h 2.409 v -10.23 h -2.508 v -2.277 h 5.412 v 12.507 h 2.376 z m 18.51298,0 h -5.247 v -2.904 q -0.693,1.32 -1.947,2.277 -1.221,0.957 -3.267,0.957 -2.871,0 -4.587,-1.947 -1.716,-1.98 -1.716,-5.412 0,-3.036 1.551,-5.511 1.584,-2.508 5.082,-2.508 3.399,0 4.884,2.64 v -8.019 h -3.399 v -2.277 h 6.27 v 20.46 h 2.376 z m -5.247,-6.798 v -1.782 q -0.066,-1.848 -1.254,-2.97 -1.188,-1.122 -2.871,-1.122 -2.145,0 -3.267,1.584 -1.089,1.584 -1.089,3.894 0,2.508 1.188,3.828 1.188,1.32 2.937,1.32 1.881,0 3.069,-1.551 1.221,-1.551 1.287,-3.201 z m 22.11002,-5.676 h -1.65 l -5.082,12.474 -1.815,4.719 h 2.343 v 2.31 h -7.656 v -2.31 h 2.607 l 1.716,-4.686 -5.313,-12.507 h -1.683 v -2.277 h 7.029 v 2.277 h -2.244 l 3.795,8.976 h 0.198 l 3.267,-8.976 h -2.079 v -2.277 h 6.567 z m 9.20699,-1.155 q 1.353,-0.792 2.64,-1.089 1.32,-0.33 2.871,-0.33 2.508,0 3.96,1.221 1.485,1.221 1.485,3.762 v 6.831 q 0,1.452 1.155,1.452 0.462,0 0.891,-0.165 l 0.033,1.716 q -0.924,0.561 -2.145,0.561 -2.673,0 -2.838,-2.97 v -0.033 q -0.66,1.155 -1.914,2.079 -1.221,0.924 -3.003,0.924 -1.518,0 -3.036,-0.924 -1.485,-0.924 -1.485,-3.234 0,-2.772 2.178,-3.63 2.211,-0.891 4.719,-0.891 1.518,0 2.541,0.132 v -1.089 q 0,-1.452 -0.561,-2.475 -0.561,-1.023 -2.508,-1.023 -1.584,0 -2.673,0.561 l -0.561,2.409 -2.343,-0.264 z m 8.052,7.953 v -0.858 q -0.594,-0.066 -1.254,-0.099 -0.627,-0.066 -1.287,-0.066 -1.518,0 -2.706,0.495 -1.188,0.495 -1.188,2.046 0,1.188 0.726,1.716 0.759,0.528 1.716,0.528 1.419,0 2.64,-0.99 1.221,-0.99 1.353,-2.772 z M 203.56697,396 h -5.247 v -2.904 q -0.693,1.32 -1.947,2.277 -1.221,0.957 -3.267,0.957 -2.871,0 -4.587,-1.947 -1.716,-1.98 -1.716,-5.412 0,-3.036 1.551,-5.511 1.584,-2.508 5.082,-2.508 3.399,0 4.884,2.64 v -8.019 h -3.399 v -2.277 h 6.27 v 20.46 h 2.376 z m -5.247,-6.798 v -1.782 q -0.066,-1.848 -1.254,-2.97 -1.188,-1.122 -2.871,-1.122 -2.145,0 -3.267,1.584 -1.089,1.584 -1.089,3.894 0,2.508 1.188,3.828 1.188,1.32 2.937,1.32 1.881,0 3.069,-1.551 1.221,-1.551 1.287,-3.201 z M 232.30998,396 h -6.798 v -2.244 h 1.518 v -6.369 q 0,-2.244 -0.858,-3.168 -0.825,-0.957 -2.244,-0.957 -1.914,0 -2.871,1.386 -0.924,1.386 -0.957,2.805 v 6.303 h 2.376 V 396 h -6.798 v -2.244 h 1.518 v -6.369 q 0,-2.277 -0.858,-3.201 -0.825,-0.924 -2.211,-0.924 -1.881,0 -2.838,1.353 -0.957,1.353 -0.99,2.772 v 6.369 h 2.739 V 396 h -8.019 v -2.244 h 2.376 v -10.23 h -2.409 v -2.277 h 5.313 v 2.607 q 0.693,-1.287 1.881,-2.079 1.188,-0.825 2.904,-0.825 1.683,0 2.97,0.858 1.287,0.825 1.782,2.574 0.66,-1.518 1.947,-2.475 1.287,-0.957 3.135,-0.957 2.079,0 3.531,1.32 1.452,1.32 1.452,4.125 v 7.359 h 2.409 z m 3.59697,-18.216 v -3.399 h 3.003 v 3.399 z m 5.478,18.216 h -7.689 v -2.244 h 2.409 v -10.23 h -2.508 v -2.277 h 5.412 v 12.507 h 2.376 z m 19.43697,0 h -7.656 v -2.244 h 2.376 v -6.369 q 0,-2.244 -0.858,-3.168 -0.858,-0.957 -2.277,-0.957 -1.848,0 -2.937,1.221 -1.089,1.221 -1.155,2.838 v 6.435 h 2.376 V 396 h -7.656 v -2.244 h 2.376 v -10.23 h -2.475 v -2.277 h 5.379 v 2.508 q 1.551,-2.805 5.016,-2.805 2.145,0 3.63,1.32 1.485,1.32 1.485,4.125 v 7.359 h 2.376 z m 0.92403,3.201 1.815,-7.293 h 2.805 l -1.815,7.293 z m 22.01101,-26.235 q 1.023,0 1.947,0.231 0.957,0.231 1.782,0.891 l 0.594,3.597 -2.31,0.297 -0.627,-2.475 q -0.693,-0.231 -1.551,-0.231 -2.343,0 -2.343,3.036 v 2.937 h 3.795 v 2.211 h -3.795 v 10.296 h 3.102 V 396 h -8.382 v -2.244 h 2.409 V 383.46 h -2.046 v -2.211 h 2.046 v -2.607 q 0,-2.508 1.518,-4.092 1.518,-1.584 3.861,-1.584 z m 16.53298,18.678 q -0.231,1.914 -1.881,3.3 -1.65,1.386 -4.488,1.386 -3.201,0 -5.181,-1.914 -1.98,-1.914 -1.98,-5.544 0,-3.432 1.848,-5.676 1.848,-2.244 5.115,-2.244 3.036,0 4.719,1.881 1.683,1.881 1.716,4.554 0,0.891 -0.198,1.881 h -10.164 q 0.198,4.686 4.323,4.686 1.716,0 2.574,-0.825 0.891,-0.825 1.188,-1.98 z m -3.135,-4.323 q 0.132,-1.452 -0.726,-2.772 -0.825,-1.353 -2.772,-1.353 -1.815,0 -2.739,1.221 -0.891,1.188 -1.089,2.904 z m 28.74303,-3.795 h -1.584 l -4.257,12.474 h -2.178 l -4.29,-10.527 h -0.165 l -4.158,10.527 h -2.079 l -4.389,-12.474 h -1.518 v -2.277 h 7.194 v 2.277 h -2.574 l 2.706,8.25 h 0.165 l 4.092,-10.527 h 1.848 l 4.422,10.494 h 0.198 l 2.277,-8.217 h -2.475 v -2.277 h 6.765 z m 14.52003,8.118 q -0.231,1.914 -1.881,3.3 -1.65,1.386 -4.488,1.386 -3.201,0 -5.181,-1.914 -1.98,-1.914 -1.98,-5.544 0,-3.432 1.848,-5.676 1.848,-2.244 5.115,-2.244 3.036,0 4.719,1.881 1.683,1.881 1.716,4.554 0,0.891 -0.198,1.881 h -10.164 q 0.198,4.686 4.323,4.686 1.716,0 2.574,-0.825 0.891,-0.825 1.188,-1.98 z m -3.135,-4.323 q 0.132,-1.452 -0.726,-2.772 -0.825,-1.353 -2.772,-1.353 -1.815,0 -2.739,1.221 -0.891,1.188 -1.089,2.904 z m 13.82702,-6.303 q 1.551,0 2.64,0.792 l 0.594,4.125 -2.277,0.264 -0.561,-2.541 q -0.561,-0.231 -1.155,-0.231 -1.122,0 -1.881,0.957 -0.759,0.924 -0.759,2.442 v 6.93 h 3.168 V 396 h -8.448 v -2.244 h 2.376 v -10.23 h -2.475 v -2.277 h 5.181 v 2.706 q 0.429,-1.254 1.32,-2.079 0.924,-0.858 2.277,-0.858 z m 28.24798,7.227 q 0,3.036 -1.617,5.577 -1.617,2.508 -5.148,2.508 -3.267,0 -4.752,-2.409 v 6.798 h 3.201 v 2.31 h -8.481 v -2.31 h 2.409 v -17.193 h -2.508 v -2.277 h 5.379 v 3.003 q 0.66,-1.32 1.881,-2.31 1.221,-0.99 3.267,-0.99 2.838,0 4.587,1.947 1.782,1.914 1.782,5.346 z m -3.036,0.264 q 0,-2.541 -1.188,-3.861 -1.155,-1.32 -3.003,-1.32 -1.881,0 -3.036,1.485 -1.155,1.485 -1.221,3.201 l -0.033,1.716 q 0,1.848 1.188,3.036 1.188,1.188 2.937,1.188 2.211,0 3.267,-1.551 1.089,-1.584 1.089,-3.894 z M 388.76299,396 h -7.656 v -2.244 h 2.376 v -18.183 h -2.475 v -2.277 h 5.379 v 20.46 h 2.376 z m 18.90898,0 h -5.379 v -2.64 q -1.518,2.97 -4.983,2.97 -2.145,0 -3.663,-1.32 -1.485,-1.32 -1.485,-4.158 v -7.326 h -2.376 v -2.277 h 5.28 v 8.646 q 0,2.244 0.858,3.168 0.891,0.924 2.376,0.924 1.782,0 2.871,-1.287 1.089,-1.32 1.122,-2.904 v -6.27 h -2.871 v -2.277 h 5.775 v 12.507 h 2.475 z m 18.24902,-12.474 h -2.277 v 12.111 q 0,3.498 -1.947,5.61 -1.914,2.112 -5.544,2.112 -2.31,0 -4.224,-1.056 -1.914,-1.023 -2.607,-3.333 l 2.244,-1.155 q 0.627,1.617 1.914,2.376 1.287,0.759 2.739,0.759 1.98,0 3.267,-1.386 1.287,-1.386 1.287,-3.993 v -2.475 q -0.66,1.254 -1.881,2.145 -1.221,0.891 -3.267,0.891 -2.64,0 -4.521,-1.815 -1.848,-1.848 -1.848,-5.346 0,-3.036 1.65,-5.511 1.65,-2.508 4.983,-2.508 3.432,0 4.884,2.607 v -2.31 h 5.148 z m -5.148,5.808 v -1.914 q 0,-1.848 -1.188,-2.97 -1.188,-1.122 -2.871,-1.122 -2.178,0 -3.234,1.584 -1.056,1.551 -1.056,3.861 0,2.541 1.122,3.762 1.155,1.221 2.805,1.221 1.98,0 3.168,-1.386 1.188,-1.386 1.254,-3.036 z m 8.97605,-11.55 v -3.399 h 3.003 v 3.399 z m 5.478,18.216 h -7.689 v -2.244 h 2.409 v -10.23 h -2.508 v -2.277 h 5.412 v 12.507 h 2.376 z m 19.43698,0 h -7.656 v -2.244 h 2.376 v -6.369 q 0,-2.244 -0.858,-3.168 -0.858,-0.957 -2.277,-0.957 -1.848,0 -2.937,1.221 -1.089,1.221 -1.155,2.838 v 6.435 h 2.376 V 396 h -7.656 v -2.244 h 2.376 v -10.23 h -2.475 v -2.277 h 5.379 v 2.508 q 1.551,-2.805 5.016,-2.805 2.145,0 3.63,1.32 1.485,1.32 1.485,4.125 v 7.359 h 2.376 z m 13.827,-4.323 q 0,2.211 -1.848,3.432 -1.815,1.221 -4.62,1.221 -3.399,0 -5.775,-1.452 l 0.462,-3.564 2.277,0.231 -0.066,1.914 q 0.66,0.33 1.419,0.462 0.792,0.132 1.551,0.132 1.419,0 2.541,-0.528 1.155,-0.528 1.155,-1.65 0,-1.089 -0.924,-1.518 -0.924,-0.462 -2.31,-0.693 -1.353,-0.231 -2.706,-0.561 -1.353,-0.363 -2.277,-1.188 -0.924,-0.858 -0.924,-2.574 0,-2.475 1.815,-3.432 1.848,-0.957 3.927,-0.957 1.518,0 2.838,0.396 1.353,0.363 2.442,0.957 l 0.33,3.564 -2.31,0.264 -0.33,-2.31 q -1.353,-0.627 -2.838,-0.627 -1.221,0 -2.013,0.462 -0.792,0.462 -0.792,1.518 0,1.023 0.891,1.452 0.924,0.429 2.244,0.66 1.353,0.198 2.673,0.561 1.353,0.363 2.244,1.221 0.924,0.858 0.924,2.607 z m 1.74901,7.524 1.815,-7.293 h 2.805 l -1.815,7.293 z m 22.01101,-26.235 q 1.023,0 1.947,0.231 0.957,0.231 1.782,0.891 l 0.594,3.597 -2.31,0.297 -0.627,-2.475 q -0.693,-0.231 -1.551,-0.231 -2.343,0 -2.343,3.036 v 2.937 h 3.795 v 2.211 h -3.795 v 10.296 h 3.102 V 396 h -8.382 v -2.244 h 2.409 V 383.46 h -2.046 v -2.211 h 2.046 v -2.607 q 0,-2.508 1.518,-4.092 1.518,-1.584 3.861,-1.584 z m 4.686,9.405 q 1.353,-0.792 2.64,-1.089 1.32,-0.33 2.871,-0.33 2.508,0 3.96,1.221 1.485,1.221 1.485,3.762 v 6.831 q 0,1.452 1.155,1.452 0.462,0 0.891,-0.165 l 0.033,1.716 q -0.924,0.561 -2.145,0.561 -2.673,0 -2.838,-2.97 v -0.033 q -0.66,1.155 -1.914,2.079 -1.221,0.924 -3.003,0.924 -1.518,0 -3.036,-0.924 -1.485,-0.924 -1.485,-3.234 0,-2.772 2.178,-3.63 2.211,-0.891 4.719,-0.891 1.518,0 2.541,0.132 v -1.089 q 0,-1.452 -0.561,-2.475 -0.561,-1.023 -2.508,-1.023 -1.584,0 -2.673,0.561 l -0.561,2.409 -2.343,-0.264 z m 8.052,7.953 v -0.858 q -0.594,-0.066 -1.254,-0.099 -0.627,-0.066 -1.287,-0.066 -1.518,0 -2.706,0.495 -1.188,0.495 -1.188,2.046 0,1.188 0.726,1.716 0.759,0.528 1.716,0.528 1.419,0 2.64,-0.99 1.221,-0.99 1.353,-2.772 z m 19.04101,1.353 q 0,2.211 -1.848,3.432 -1.815,1.221 -4.62,1.221 -3.399,0 -5.775,-1.452 l 0.462,-3.564 2.277,0.231 -0.066,1.914 q 0.66,0.33 1.419,0.462 0.792,0.132 1.551,0.132 1.419,0 2.541,-0.528 1.155,-0.528 1.155,-1.65 0,-1.089 -0.924,-1.518 -0.924,-0.462 -2.31,-0.693 -1.353,-0.231 -2.706,-0.561 -1.353,-0.363 -2.277,-1.188 -0.924,-0.858 -0.924,-2.574 0,-2.475 1.815,-3.432 1.848,-0.957 3.927,-0.957 1.518,0 2.838,0.396 1.353,0.363 2.442,0.957 l 0.33,3.564 -2.31,0.264 -0.33,-2.31 q -1.353,-0.627 -2.838,-0.627 -1.221,0 -2.013,0.462 -0.792,0.462 -0.792,1.518 0,1.023 0.891,1.452 0.924,0.429 2.244,0.66 1.353,0.198 2.673,0.561 1.353,0.363 2.244,1.221 0.924,0.858 0.924,2.607 z m 13.62901,0.165 q -0.627,4.488 -4.95,4.488 -2.277,0 -3.564,-1.221 -1.254,-1.254 -1.254,-3.465 v -8.184 h -2.277 v -2.211 h 2.277 v -4.653 h 2.871 v 4.653 h 5.643 v 2.211 h -5.643 v 7.755 q 0,2.64 2.277,2.64 0.726,0 1.452,-0.462 0.726,-0.495 1.023,-2.244 z m 14.65199,-0.198 q -0.231,1.914 -1.881,3.3 -1.65,1.386 -4.488,1.386 -3.201,0 -5.181,-1.914 -1.98,-1.914 -1.98,-5.544 0,-3.432 1.848,-5.676 1.848,-2.244 5.115,-2.244 3.036,0 4.719,1.881 1.683,1.881 1.716,4.554 0,0.891 -0.198,1.881 h -10.164 q 0.198,4.686 4.323,4.686 1.716,0 2.574,-0.825 0.891,-0.825 1.188,-1.98 z m -3.135,-4.323 q 0.132,-1.452 -0.726,-2.772 -0.825,-1.353 -2.772,-1.353 -1.815,0 -2.739,1.221 -0.891,1.188 -1.089,2.904 z m 13.82703,-6.303 q 1.551,0 2.64,0.792 l 0.594,4.125 -2.277,0.264 -0.561,-2.541 q -0.561,-0.231 -1.155,-0.231 -1.122,0 -1.881,0.957 -0.759,0.924 -0.759,2.442 v 6.93 h 3.168 V 396 h -8.448 v -2.244 h 2.376 v -10.23 h -2.475 v -2.277 h 5.181 v 2.706 q 0.429,-1.254 1.32,-2.079 0.924,-0.858 2.277,-0.858 z m 25.60799,10.626 q -0.231,1.914 -1.881,3.3 -1.65,1.386 -4.488,1.386 -3.201,0 -5.181,-1.914 -1.98,-1.914 -1.98,-5.544 0,-3.432 1.848,-5.676 1.848,-2.244 5.115,-2.244 3.036,0 4.719,1.881 1.683,1.881 1.716,4.554 0,0.891 -0.198,1.881 h -10.164 q 0.198,4.686 4.323,4.686 1.716,0 2.574,-0.825 0.891,-0.825 1.188,-1.98 z m -3.135,-4.323 q 0.132,-1.452 -0.726,-2.772 -0.825,-1.353 -2.772,-1.353 -1.815,0 -2.739,1.221 -0.891,1.188 -1.089,2.904 z m 20.36103,-3.795 h -1.716 L 598.7751,396 h -2.145 l -5.61,-12.474 h -1.716 v -2.277 h 7.029 v 2.277 h -2.211 l 3.729,8.646 h 0.198 l 3.234,-8.646 h -2.013 v -2.277 h 6.567 z m 14.35499,8.118 q -0.231,1.914 -1.881,3.3 -1.65,1.386 -4.488,1.386 -3.201,0 -5.181,-1.914 -1.98,-1.914 -1.98,-5.544 0,-3.432 1.848,-5.676 1.848,-2.244 5.115,-2.244 3.036,0 4.719,1.881 1.683,1.881 1.716,4.554 0,0.891 -0.198,1.881 h -10.164 q 0.198,4.686 4.323,4.686 1.716,0 2.574,-0.825 0.891,-0.825 1.188,-1.98 z m -3.135,-4.323 q 0.132,-1.452 -0.726,-2.772 -0.825,-1.353 -2.772,-1.353 -1.815,0 -2.739,1.221 -0.891,1.188 -1.089,2.904 z m 13.827,-6.303 q 1.551,0 2.64,0.792 l 0.594,4.125 -2.277,0.264 -0.561,-2.541 q -0.561,-0.231 -1.155,-0.231 -1.122,0 -1.881,0.957 -0.759,0.924 -0.759,2.442 v 6.93 h 3.168 V 396 h -8.448 v -2.244 h 2.376 v -10.23 h -2.475 v -2.277 h 5.181 v 2.706 q 0.429,-1.254 1.32,-2.079 0.924,-0.858 2.277,-0.858 z m 21.15304,2.508 h -1.65 l -5.082,12.474 -1.815,4.719 h 2.343 v 2.31 h -7.656 v -2.31 h 2.607 l 1.716,-4.686 -5.313,-12.507 h -1.683 v -2.277 h 7.029 v 2.277 h -2.244 l 3.795,8.976 h 0.198 l 3.267,-8.976 h -2.079 v -2.277 h 6.567 z m 12.77098,8.316 q -0.627,4.488 -4.95,4.488 -2.277,0 -3.564,-1.221 -1.254,-1.254 -1.254,-3.465 v -8.184 h -2.277 v -2.211 h 2.277 v -4.653 h 2.871 v 4.653 h 5.643 v 2.211 h -5.643 v 7.755 q 0,2.64 2.277,2.64 0.726,0 1.452,-0.462 0.726,-0.495 1.023,-2.244 z M 683.18913,396 h -7.689 v -2.244 h 2.409 v -6.369 q 0,-2.244 -0.891,-3.168 -0.891,-0.957 -2.343,-0.957 -1.782,0 -2.871,1.221 -1.089,1.188 -1.155,2.739 v 6.534 h 2.409 V 396 h -7.656 v -2.244 h 2.376 v -18.183 h -2.376 v -2.277 h 5.247 v 10.494 q 1.617,-2.838 5.049,-2.838 2.145,0 3.63,1.32 1.485,1.32 1.485,4.125 v 7.359 h 2.376 z m 3.62997,-18.216 v -3.399 h 3.003 v 3.399 z m 5.478,18.216 h -7.689 v -2.244 h 2.409 v -10.23 h -2.508 v -2.277 h 5.412 v 12.507 h 2.376 z m 19.43699,0 h -7.656 v -2.244 h 2.376 v -6.369 q 0,-2.244 -0.858,-3.168 -0.858,-0.957 -2.277,-0.957 -1.848,0 -2.937,1.221 -1.089,1.221 -1.155,2.838 v 6.435 h 2.376 V 396 h -7.656 v -2.244 h 2.376 v -10.23 h -2.475 v -2.277 h 5.379 v 2.508 q 1.551,-2.805 5.016,-2.805 2.145,0 3.63,1.32 1.485,1.32 1.485,4.125 v 7.359 h 2.376 z m 18.08406,-12.474 h -2.277 v 12.111 q 0,3.498 -1.947,5.61 -1.914,2.112 -5.544,2.112 -2.31,0 -4.224,-1.056 -1.914,-1.023 -2.607,-3.333 l 2.244,-1.155 q 0.627,1.617 1.914,2.376 1.287,0.759 2.739,0.759 1.98,0 3.267,-1.386 1.287,-1.386 1.287,-3.993 v -2.475 q -0.66,1.254 -1.881,2.145 -1.221,0.891 -3.267,0.891 -2.64,0 -4.521,-1.815 -1.848,-1.848 -1.848,-5.346 0,-3.036 1.65,-5.511 1.65,-2.508 4.983,-2.508 3.432,0 4.884,2.607 v -2.31 h 5.148 z m -5.148,5.808 v -1.914 q 0,-1.848 -1.188,-2.97 -1.188,-1.122 -2.871,-1.122 -2.178,0 -3.234,1.584 -1.056,1.551 -1.056,3.861 0,2.541 1.122,3.762 1.155,1.221 2.805,1.221 1.98,0 3.168,-1.386 1.188,-1.386 1.254,-3.036 z m 6.89701,6.666 v -4.092 h 3.762 V 396 Z"
       id="text51"
       style="font-weight:500;font-size:33px;fill:#c2cad6"
       aria-label="Tidy admin, fewer plugins, faster everything." />
  </g>
</svg>
